<?xml version="1.0" standalone="no"?><!DOCTYPE svg PUBLIC "-//W3C//DTD SVG 1.1//EN" "http://www.w3.org/Graphics/SVG/1.1/DTD/svg11.dtd"><svg t="1610527338773" class="icon" viewBox="0 0 1024 1024" version="1.1" xmlns="http://www.w3.org/2000/svg" p-id="1855" xmlns:xlink="http://www.w3.org/1999/xlink" width="200" height="200"><defs><style type="text/css"></style></defs><path d="M312.2 524.7c-7.1-8.8-5.8-21.7 3-28.8l446.9-362.5c8.8-7.1 21.7-5.8 28.8 3 7.1 8.8 5.8 21.7-3 28.8L341 527.7c-8.8 7.1-21.7 5.8-28.8-3z" fill="#f0eeed" p-id="1856"></path><path d="M762.1 890.7L315.2 528.2c-8.8-7.1-10.1-20-3-28.8s20-10.1 28.8-3l447 362.4c8.8 7.1 10.1 20 3 28.8-7.2 8.9-20.1 10.2-28.9 3.1z" fill="#f0eeed" p-id="1857"></path></svg>